<svg xmlns="http://www.w3.org/2000/svg" version="1.1" xmlns:xlink="http://www.w3.org/1999/xlink" xmlns:svgjs="http://svgjs.com/svgjs" width="24" height="24"><svg viewBox="0 0 24 24" xmlns="http://www.w3.org/2000/svg">
  <path d="M 24 12 C 24 18.627 18.627 24 12 24 C 5.373 24 0 18.627 0 12 C 0 5.373 5.373 0 12 0 C 18.627 0 24 5.373 24 12 Z M 6.581 12.32 L 6.581 5.598 C 6.55 5.304 6.635 5.181 6.823 4.986 C 7.008 4.794 7.105 4.712 7.373 4.747 L 13.609 4.747 L 17.419 8.702 L 17.419 18.402 C 17.45 18.696 17.365 18.819 17.177 19.014 C 16.992 19.206 16.895 19.288 16.627 19.253 L 10.843 19.253 C 10.429 19.253 10.093 19.589 10.093 20.003 C 10.093 20.417 10.429 20.753 10.843 20.753 L 16.627 20.753 C 17.211 20.718 17.885 20.441 18.258 20.054 C 18.628 19.669 18.888 18.992 18.919 18.402 L 18.919 8.399 C 18.919 8.399 18.919 8.096 18.709 7.879 L 14.468 3.477 C 14.468 3.477 14.247 3.247 13.928 3.247 L 7.373 3.247 C 6.79 3.282 6.116 3.558 5.743 3.945 C 5.372 4.33 5.112 5.007 5.081 5.598 L 5.081 12.32 C 5.081 12.734 5.417 13.07 5.831 13.07 C 6.245 13.07 6.581 12.734 6.581 12.32 Z M 9.665 11.273 L 14.335 10.486 L 14.335 12.976 C 14.088 12.881 13.821 12.829 13.542 12.829 C 12.28 12.829 11.257 13.891 11.257 15.201 C 11.257 16.511 12.28 17.573 13.542 17.573 C 14.765 17.573 15.763 16.577 15.825 15.324 C 15.832 15.284 15.835 15.243 15.835 15.201 L 15.835 9.599 C 15.835 9.599 15.835 8.712 14.96 8.859 L 8.79 9.899 C 8.79 9.899 8.165 10.005 8.165 10.639 L 8.165 14.569 C 7.918 14.475 7.651 14.423 7.373 14.423 C 6.107 14.423 5.081 15.489 5.081 16.802 C 5.081 18.115 6.107 19.18 7.373 19.18 C 8.638 19.18 9.665 18.115 9.665 16.802 Z M 8.165 16.802 C 8.165 16.839 8.168 16.876 8.173 16.912 C 8.121 17.322 7.783 17.639 7.373 17.639 C 6.927 17.639 6.566 17.264 6.566 16.802 C 6.566 16.339 6.927 15.965 7.373 15.965 C 7.766 15.965 8.092 16.255 8.165 16.64 Z M 14.335 15.201 C 14.335 15.237 14.338 15.273 14.343 15.308 C 14.292 15.72 13.953 16.038 13.542 16.038 C 13.097 16.038 12.736 15.664 12.736 15.201 C 12.736 14.739 13.097 14.364 13.542 14.364 C 13.937 14.364 14.265 14.657 14.335 15.045 Z" style="fill: rgb(0, 0, 0);"></path>
</svg><style>@media (prefers-color-scheme: light) { :root { filter: none; } }
@media (prefers-color-scheme: dark) { :root { filter: invert(100%); } }
</style></svg>